<svg width="16" height="16" viewBox="0 0 16 16" fill="none" xmlns="http://www.w3.org/2000/svg">
<path d="M15.5294 2.40958C15.819 2.68283 15.9881 3.05968 15.9994 3.45728C16.0107 3.85487 15.8632 4.24066 15.5895 4.52982L7.06932 13.5309C6.93124 13.6765 6.7653 13.793 6.58131 13.8736C6.39732 13.9541 6.19902 13.9971 5.99812 13.9999C5.79722 14.0027 5.59779 13.9652 5.41163 13.8898C5.22546 13.8144 5.05633 13.7026 4.91422 13.5609L0.403539 9.06034C0.13795 8.77596 -0.00663846 8.39983 0.000234249 8.01118C0.00710696 7.62253 0.164905 7.25172 0.440383 6.97686C0.715861 6.702 1.08751 6.54456 1.47704 6.5377C1.86656 6.53085 2.24355 6.67511 2.52857 6.9401L5.94667 10.3485L13.4043 2.46958C13.6782 2.18054 14.0559 2.01185 14.4544 2.0006C14.8529 1.98935 15.2395 2.13646 15.5294 2.40958Z" fill="#33CA7F"/>
</svg>
