<svg width="40" height="40" viewBox="0 0 40 40" fill="none" xmlns="http://www.w3.org/2000/svg">
<path d="M22.1 5.00002C13.6166 4.76669 6.66664 11.5834 6.66664 20H3.6833C2.9333 20 2.56664 20.9 3.09997 21.4167L7.74997 26.0834C8.0833 26.4167 8.59997 26.4167 8.9333 26.0834L13.5833 21.4167C13.6985 21.2992 13.7763 21.1502 13.8069 20.9886C13.8376 20.8269 13.8197 20.6598 13.7555 20.5083C13.6914 20.3568 13.5838 20.2277 13.4464 20.1373C13.309 20.0468 13.1478 19.9991 12.9833 20H9.99997C9.99997 13.5 15.3 8.25002 21.8333 8.33335C28.0333 8.41669 33.25 13.6334 33.3333 19.8334C33.4166 26.35 28.1666 31.6667 21.6666 31.6667C18.9833 31.6667 16.5 30.75 14.5333 29.2C14.2141 28.9485 13.8136 28.8232 13.4079 28.8478C13.0023 28.8723 12.6198 29.0452 12.3333 29.3334C11.6333 30.0334 11.6833 31.2167 12.4666 31.8167C15.0852 33.8875 18.3283 35.0096 21.6666 35C30.0833 35 36.9 28.05 36.6666 19.5667C36.45 11.75 29.9166 5.21669 22.1 5.00002ZM21.25 13.3334C20.5666 13.3334 20 13.9 20 14.5834V20.7167C20 21.3 20.3166 21.85 20.8166 22.15L26.0166 25.2334C26.6166 25.5834 27.3833 25.3834 27.7333 24.8C28.0833 24.2 27.8833 23.4334 27.3 23.0834L22.5 20.2334V14.5667C22.5 13.9 21.9333 13.3334 21.25 13.3334Z" fill="#9D9D9D"/>
</svg>
